<svg xmlns="http://www.w3.org/2000/svg" viewBox="0 0 1400 219" role="img" aria-label="Sudeste Atacado"><title>Sudeste Atacado</title><path fill="#FFFFFF" fill-rule="evenodd" d="M22.5 0L231.5 0L232.5 1L235.5 1L238.5 3L240.5 3L250 11.5L254 20.5L255 29.5L254 30.5L254 34.5Q252.5 35 253 37.5L247 47.5L244 50.5L238 60.5L235 63.5L231 70.5L228 73.5L224 80.5L221 83.5L217 90.5L214 93.5L210 100.5L200 113.5L194 123.5L191 126.5L173 153.5L165 163.5L136 206.5L128.5 214L120.5 218Q117.25 217.25 116.5 219L108.5 219L107.5 218L104.5 218L101.5 216L99.5 216L90 207.5L80.5 190L64.5 190L64 189.5L65.5 188L78.5 182L80.5 180L82.5 180L86.5 177L102.5 169L106.5 171L116.5 171Q122.67 168.67 126 163.5L128 158.5L128 149.5L125 143.5L121.5 140L115.5 137L106.5 137L98 142.5L94 149.5L94 153L82.5 158L80.5 160L70.5 165L68.5 165L59 148.5L60.5 147L87.5 134L89.5 132L108.5 123L110.5 121L132.5 110L136.5 110L141.5 112L143 113.5Q143.88 120.13 148.5 123L154.5 126L163.5 126L169.5 123L173 119.5L176 113.5L176 104.5L173 98.5L169.5 95L163.5 92L154.5 92L148.5 95L138.5 91L130.5 90L26.5 144Q25.25 143.25 27 142.5L40 124.5L44 120.5L44 118.5Q41.4 116.68 42 113L43.5 113L59.5 105L61.5 103L90.5 89L92.5 87L111.5 78L113.5 76L140.5 63L142.5 61L160.5 52L164.5 54L173.5 54L179.5 51L183 47.5L186 41.5L186 32.5L183 26.5L179.5 23L172.5 20L165.5 20L158.5 23L155 26.5L152 33.5L152 36L136.5 43L134.5 45L104.5 60L104 57.5L106 52L110.5 51L117 44.5L119 39.5L119 31.5L116 25.5L112.5 22L106.5 19L96.5 19Q90.33 21.33 87 26.5L85 30.5L85 40.5Q86.5 41 86 43.5L88 45.5L88 48.5L87 49.5L87 51.5L86 52.5L86 54.5L85 55.5L85 57.5L80 70.5L80 72.5L78.5 74L55.5 85L53.5 87L33.5 97L32 97L24 79L39.5 72L42.5 74L51.5 74L57.5 71L61 67.5L64 62.5L64 51.5Q61.67 45.33 56.5 42L51.5 40L42.5 40L36.5 43L34 45.5L31 50.5L30 56L28.5 56L15.5 63L14 61.5L1 35.5Q1.75 32.25 0 31.5L0 23.5L1 22.5L1 19.5L4 12.5L12.5 4L22.5 0ZM356.5 0L467.5 0L468 0.5L468 29L363.5 29L361 31.5L362 35L367.5 37L369.5 37L372.5 39L380.5 41L383.5 43L385.5 43L393.5 47L401.5 49L404.5 51L409.5 52L417.5 56L425.5 58L433.5 62L438.5 63L441.5 65L449.5 67L452.5 69L456.5 70L462 74.5L465 78.5L467 85.5L468 86.5L468 99.5L467 100.5L466 105.5Q463.5 107 463 110.5L457.5 116L452.5 119L450.5 119L446.5 121L441.5 121L440.5 122L323.5 122L322 120.5L322 94L419.5 94L421 92.5L421 88L419.5 88L411.5 84L400.5 81L392.5 77L384.5 75L381.5 73L376.5 72L365.5 67L363.5 67L362.5 66L357.5 65L354.5 63L349.5 62L346.5 60L341.5 59L338.5 57L336.5 57L332.5 55L328 51.5L325 47.5L322 40.5L322 27.5Q323.75 26.75 323 23.5L327 15.5L332.5 9L340.5 4L342.5 4L346.5 2L349.5 2L350.5 1L355.5 1L356.5 0ZM484 0L521 0L521 81.5L523 86.5L527.5 91L532.5 93L536.5 93L537.5 94L569.5 94L570.5 93L575.5 93Q576 91.5 578.5 92L583 88.5L586 81.5L586 0L623 0L623 93.5L622 94.5L622 98.5L621 99.5L619 106.5L610.5 116L606.5 118L600.5 119L599.5 120L596.5 120L595.5 121L585.5 121L584.5 122L523.5 122L522.5 121L514.5 121L513.5 120L510.5 120L509.5 119L506.5 119L503.5 117L501.5 117L495.5 113L490 107.5L486 100.5L485 94.5L484 93.5L484 0ZM639 0L735.5 0L736.5 1L741.5 1L742.5 2L745.5 2L746.5 3L751.5 4Q760.67 8.33 767 15.5L773 25.5L773 27.5L776 34.5L776 39.5L777 40.5L777 79.5Q774.75 80.75 776 85.5L771 98.5L767 104.5L759.5 112L749.5 118L743.5 119L742.5 120L739.5 120L738.5 121L731.5 121L730.5 122L640.5 122L639 120.5L639 0ZM829.5 0L929.5 0L930 0.5L930 26.5L928.5 28L841.5 28L840.5 29L837.5 29L833.5 31L830 34.5L827 41.5L827 47L929.5 47L930 47.5L930 74L827.5 74L827 74.5L827 79.5Q828.75 80.25 828 83.5L831 87.5L831 89L832.5 89L838.5 93Q843.25 91.75 844.5 94L930 94L930 120.5L928.5 122L833.5 122L832.5 121L826.5 121Q825.75 119.25 822.5 120L813.5 116L802 105.5L796 94.5L796 92.5L794 88.5L794 83.5L793 82.5L793 37.5L794 36.5L795 28.5L799 19.5L809.5 8L818.5 3L820.5 3L824.5 1L828.5 1L829.5 0ZM980.5 0L1091.5 0L1092 0.5L1092 27.5L1090.5 29L986 29L985 33.5L986.5 35L990.5 36L993.5 38L1001.5 40L1004.5 42L1009.5 43L1017.5 47L1019.5 47L1020.5 48L1025.5 49L1028.5 51L1030.5 51L1033.5 53L1035.5 53L1038.5 55L1046.5 57L1049.5 59L1054.5 60L1062.5 64L1064.5 64L1065.5 65L1070.5 66L1073.5 68L1075.5 68L1081.5 71L1088 77.5L1092 87.5L1092 98.5L1088 108.5L1081.5 116L1076.5 119L1074.5 119L1070.5 121L1065.5 121L1064.5 122L947.5 122L946 120.5L946 94L1043.5 94L1045 92.5Q1045.75 87.75 1042.5 87L1035.5 85L1032.5 83L1024.5 81L1021.5 79L1016.5 78L1013.5 76L1005.5 74L1002.5 72L997.5 71L989.5 67L978.5 64L970.5 60L968.5 60L967.5 59L962.5 58L959.5 56L957.5 56L950 49.5L948 46.5L948 44.5L946 40.5L946 27.5L947 26.5L947 23.5L949 18.5L953 12.5L957.5 8L964.5 4L966.5 4L970.5 2L973.5 2L974.5 1L979.5 1L980.5 0ZM1108 0L1246.5 0L1247 0.5L1247 28L1195 28L1195 120.5L1193.5 122L1159.5 122L1158 120.5L1158 28L1108 28L1108 0ZM1299.5 0L1399.5 0L1400 0.5L1400 28L1311.5 28L1310.5 29L1305.5 30L1300 34.5L1298 38.5Q1298.83 43.33 1297 45.5L1298.5 47L1400 47L1400 73.5L1399.5 74L1298.5 74L1297 76.5L1298 77.5L1298 82.5Q1299.5 83 1299 85.5L1304.5 91L1309.5 93L1313.5 93L1314.5 94L1400 94L1400 121.5L1399.5 122L1304.5 122L1303.5 121L1296.5 121L1295.5 120L1287.5 118L1278.5 112L1273 106.5L1266 94.5L1265 88.5L1264 87.5L1264 81.5L1263 80.5L1263 39.5L1264 38.5L1264 32.5Q1265.75 31.75 1265 28.5L1270 18.5L1278.5 9L1288.5 3L1290.5 3L1294.5 1L1298.5 1L1299.5 0ZM676 28L727.5 28L728.5 29L733.5 30Q734.5 32.5 737 32L737 33.5L741 39.5L741 45.5L742 46.5L742 75.5L741 76.5L741 82.5Q739 88 734.5 91L729.5 93L725.5 93L724.5 94L676 94L676 28ZM605.5 168L630.5 168L631.5 169L635.5 169L639.5 171L643 174.5L645 177.5L646 183.5L647 184.5L647 219L631 219L631 202L604 202L604 219L589 219L589 182.5L592 175.5L596.5 171L600.5 169Q604.5 170 605.5 168ZM670 168L726.5 168L728 169.5L728 178.5L726.5 180L706 180L706 219L691 219L691 180L670 180L670 168ZM767.5 168L792.5 168L793.5 169L797.5 169L801.5 171L805 174.5L808 180.5Q807 184.5 809 185.5L809 219L794 219L794 202L766 202L766 219L751 219L751 183.5L752 182.5L752 179.5L754 175.5L758.5 171L762.5 169Q766.5 170 767.5 168ZM847.5 168L874.5 168L875.5 169L880.5 169Q881 170.5 883.5 170L888 174.5L890 179.5L890 188L875.5 188L875 186.5L873 181L870.5 180L852.5 180L848 183.5Q848.5 186 847 186.5L847 200.5Q848.5 201 848 203.5L851.5 207L870.5 207L873 206L875 199L890 199L890 207.5L887 214.5L885.5 216L881.5 218L878.5 218L877.5 219L844.5 219L843.5 218L840.5 218L836.5 216L834 213.5L832 209.5L832 178.5L834 173.5L836.5 171L841.5 169L846.5 169L847.5 168ZM929.5 168L954.5 168L955.5 169Q959.67 168.33 961.5 170L967 174.5L971 184.5L971 219L955 219L955 202L928 202L928 219L913 219L913 182.5L916 175.5L920.5 171L924.5 169Q928.5 170 929.5 168ZM994 168L1032.5 168Q1033.75 170.25 1038.5 169L1044.5 172L1047 174.5L1051 182.5L1051 204.5L1048 210.5L1042.5 216L1038.5 218L1035.5 218L1034.5 219L994 219L994 168ZM1091.5 168L1116.5 168L1117.5 169Q1121.67 168.33 1123.5 170L1129 174.5L1131 177.5L1132 183.5L1133 184.5L1133 200.5Q1130.75 201.75 1132 206.5L1129 212.5L1125.5 216L1118.5 219L1089.5 219L1088.5 218Q1085 218.5 1083.5 217L1078 211.5L1076 207.5L1076 204.5L1075 203.5L1075 182.5L1078 175.5L1082.5 171L1086.5 169Q1090.5 170 1091.5 168ZM609.5 180L626.5 180L631 183.5L631 189.5L630.5 190L604 190L604 185.5L607.5 181L609.5 180ZM771.5 180L788.5 180L793 183.5L793 189.5L792.5 190L766 190L767 183.5L769.5 181L771.5 180ZM933.5 180L950.5 180L955 183.5L955 189.5L954.5 190L928 190L929 183.5L931.5 181L933.5 180ZM1009 180L1031.5 180L1036 183.5L1036 203.5L1033.5 206L1031.5 207L1009 207L1009 180ZM1095.5 180L1113.5 180L1117 183.5L1117 203.5L1113.5 207L1094.5 207L1092 206L1090 201.5L1090 185.5L1093.5 181L1095.5 180Z"></path></svg>